<svg aria-roledescription="er" viewBox="0 0 625.3942260742188 510" style="max-width: 625.394px; background-color: white;" xmlns:xlink="http://www.w3.org/1999/xlink" xmlns="http://www.w3.org/2000/svg" width="100%" id="mermaid-0"><style>#mermaid-0{font-family:"trebuchet ms",verdana,arial,sans-serif;font-size:16px;fill:#000000;}#mermaid-0 .error-icon{fill:#552222;}#mermaid-0 .error-text{fill:#552222;stroke:#552222;}#mermaid-0 .edge-thickness-normal{stroke-width:2px;}#mermaid-0 .edge-thickness-thick{stroke-width:3.5px;}#mermaid-0 .edge-pattern-solid{stroke-dasharray:0;}#mermaid-0 .edge-pattern-dashed{stroke-dasharray:3;}#mermaid-0 .edge-pattern-dotted{stroke-dasharray:2;}#mermaid-0 .marker{fill:#000000;stroke:#000000;}#mermaid-0 .marker.cross{stroke:#000000;}#mermaid-0 svg{font-family:"trebuchet ms",verdana,arial,sans-serif;font-size:16px;}#mermaid-0 .entityBox{fill:#cde498;stroke:#13540c;}#mermaid-0 .attributeBoxOdd{fill:#ffffff;stroke:#13540c;}#mermaid-0 .attributeBoxEven{fill:#f2f2f2;stroke:#13540c;}#mermaid-0 .relationshipLabelBox{fill:hsl(78.1578947368, 58.4615384615%, 84.5098039216%);opacity:0.7;background-color:hsl(78.1578947368, 58.4615384615%, 84.5098039216%);}#mermaid-0 .relationshipLabelBox rect{opacity:0.5;}#mermaid-0 .relationshipLine{stroke:#000000;}#mermaid-0 .entityTitleText{text-anchor:middle;font-size:18px;fill:#000000;}#mermaid-0 :root{--mermaid-font-family:"trebuchet ms",verdana,arial,sans-serif;}</style><g/><defs><marker orient="auto" markerHeight="18" markerWidth="18" refY="9" refX="0" id="ONLY_ONE_START"><path d="M9,0 L9,18 M15,0 L15,18" fill="none" stroke="gray"/></marker></defs><defs><marker orient="auto" markerHeight="18" markerWidth="18" refY="9" refX="18" id="ONLY_ONE_END"><path d="M3,0 L3,18 M9,0 L9,18" fill="none" stroke="gray"/></marker></defs><defs><marker orient="auto" markerHeight="18" markerWidth="30" refY="9" refX="0" id="ZERO_OR_ONE_START"><circle r="6" cy="9" cx="21" fill="white" stroke="gray"/><path d="M9,0 L9,18" fill="none" stroke="gray"/></marker></defs><defs><marker orient="auto" markerHeight="18" markerWidth="30" refY="9" refX="30" id="ZERO_OR_ONE_END"><circle r="6" cy="9" cx="9" fill="white" stroke="gray"/><path d="M21,0 L21,18" fill="none" stroke="gray"/></marker></defs><defs><marker orient="auto" markerHeight="36" markerWidth="45" refY="18" refX="18" id="ONE_OR_MORE_START"><path d="M0,18 Q 18,0 36,18 Q 18,36 0,18 M42,9 L42,27" fill="none" stroke="gray"/></marker></defs><defs><marker orient="auto" markerHeight="36" markerWidth="45" refY="18" refX="27" id="ONE_OR_MORE_END"><path d="M3,9 L3,27 M9,18 Q27,0 45,18 Q27,36 9,18" fill="none" stroke="gray"/></marker></defs><defs><marker orient="auto" markerHeight="36" markerWidth="57" refY="18" refX="18" id="ZERO_OR_MORE_START"><circle r="6" cy="18" cx="48" fill="white" stroke="gray"/><path d="M0,18 Q18,0 36,18 Q18,36 0,18" fill="none" stroke="gray"/></marker></defs><defs><marker orient="auto" markerHeight="36" markerWidth="57" refY="18" refX="39" id="ZERO_OR_MORE_END"><circle r="6" cy="18" cx="9" fill="white" stroke="gray"/><path d="M21,18 Q39,0 57,18 Q39,36 21,18" fill="none" stroke="gray"/></marker></defs><path style="stroke: gray; fill: none;" marker-start="url(#ZERO_OR_MORE_START)" marker-end="url(#ONLY_ONE_END)" d="M87.60546875,278L87.60546875,286.3333333333333C87.60546875,294.6666666666667,87.60546875,311.3333333333333,134.60709635416666,334.6727690223093C181.60872395833334,358.0122047112852,275.6119791666667,388.02440942257044,322.6136067708333,403.0305117782131L369.615234375,418.0366141338557" class="er relationshipLine"/><path style="stroke: gray; fill: none;" marker-start="url(#ZERO_OR_MORE_START)" marker-end="url(#ONLY_ONE_END)" d="M116.14462425595238,88L105.75430927579366,96.33333333333333C95.36399429563492,104.66666666666667,74.58336433531746,121.33333333333333,67.15820149331664,138C59.73303865131579,154.66666666666666,65.66334292763158,171.33333333333334,68.62849506578948,179.66666666666666L71.59364720394737,188" class="er relationshipLine"/><path style="stroke: gray; fill: none;" marker-start="url(#ZERO_OR_MORE_START)" marker-end="url(#ONLY_ONE_END)" d="M210.77906436011904,88L223.58346509176587,96.33333333333333C236.38786582341268,104.66666666666667,261.9966672867063,121.33333333333333,274.8010680183532,145.5C287.60546875,169.66666666666666,287.60546875,201.33333333333334,287.60546875,233C287.60546875,264.6666666666667,287.60546875,296.3333333333333,301.2737630208333,323.14190918640605C314.9420572916667,349.9504850394788,342.2786458333333,371.90097007895764,355.9469401041667,382.876212598697L369.615234375,393.85145511843643" class="er relationshipLine"/><path style="stroke: gray; fill: none;" marker-start="url(#ZERO_OR_MORE_START)" marker-end="url(#ONLY_ONE_END)" d="M440.546875,267L440.546875,277.1666666666667C440.546875,287.3333333333333,440.546875,307.6666666666667,438.90130576847486,326.1666666666667C437.25573653694966,344.6666666666667,433.96459807389937,361.3333333333333,432.31902884237417,369.6666666666667L430.6734596108491,378" class="er relationshipLine"/><path style="stroke: gray; fill: none;" marker-start="url(#ZERO_OR_MORE_START)" marker-end="url(#ONLY_ONE_END)" d="M440.546875,77L440.546875,87.16666666666667C440.546875,97.33333333333333,440.546875,117.66666666666667,440.546875,138C440.546875,158.33333333333334,440.546875,178.66666666666666,440.546875,188.83333333333334L440.546875,199" class="er relationshipLine"/><path style="stroke: gray; fill: none;" marker-start="url(#ZERO_OR_MORE_START)" marker-end="url(#ONLY_ONE_END)" d="M390.546875,68.64720426665214L351.0895182291667,80.20600355554345C311.6321614583333,91.76480284443475,232.71744791666666,114.88240142221737,187.45331345942984,134.77453404444202C142.189179002193,154.66666666666666,130.57562362938597,171.33333333333334,124.76884594298247,179.66666666666666L118.96206825657895,188" class="er relationshipLine"/><path style="stroke: gray; fill: none;" marker-start="url(#ZERO_OR_MORE_START)" marker-end="url(#ONLY_ONE_END)" d="M482.42368861607144,77L500.9344540550596,87.16666666666667C519.4452194940476,97.33333333333333,556.4667503720239,117.66666666666667,574.9775158110119,143.66666666666666C593.48828125,169.66666666666666,593.48828125,201.33333333333334,593.48828125,233C593.48828125,264.6666666666667,593.48828125,296.3333333333333,572.8427734375,324.75299828883175C552.197265625,353.1726632443301,510.90625,378.34532648866025,490.2607421875,390.9316581108253L469.615234375,403.5179897329904" class="er relationshipLine"/><g transform="translate(369.615234375,378 )" id="entity-user-0895749b-5c0d-458e-bd8d-3fd921d45c6c"><rect height="112" width="100" y="0" x="0" class="er entityBox"/><text style="dominant-baseline: middle; text-anchor: middle; font-size: 12px;" transform="translate(50,12)" y="0" x="0" id="text-entity-user-0895749b-5c0d-458e-bd8d-3fd921d45c6c" class="er entityLabel">user</text><rect height="22" width="38.411458333333336" y="24" x="0" class="er attributeBoxOdd"/><text style="dominant-baseline: middle; font-size: 10.2px;" transform="translate(5,35)" y="0" x="0" id="text-entity-user-0895749b-5c0d-458e-bd8d-3fd921d45c6c-attr-1-type" class="er entityLabel">String</text><rect height="22" width="38.138020833333336" y="24" x="38.411458333333336" class="er attributeBoxOdd"/><text style="dominant-baseline: middle; font-size: 10.2px;" transform="translate(43.411458333333336,35)" y="0" x="0" id="text-entity-user-0895749b-5c0d-458e-bd8d-3fd921d45c6c-attr-1-name" class="er entityLabel">id</text><rect height="22" width="23.450520833333332" y="24" x="76.54947916666667" class="er attributeBoxOdd"/><text style="dominant-baseline: middle; font-size: 10.2px;" transform="translate(81.54947916666667,35)" y="0" x="0" id="text-entity-user-0895749b-5c0d-458e-bd8d-3fd921d45c6c-attr-1-key" class="er entityLabel">PK</text><rect height="22" width="38.411458333333336" y="46" x="0" class="er attributeBoxEven"/><text style="dominant-baseline: middle; font-size: 10.2px;" transform="translate(5,57)" y="0" x="0" id="text-entity-user-0895749b-5c0d-458e-bd8d-3fd921d45c6c-attr-2-type" class="er entityLabel">String</text><rect height="22" width="38.138020833333336" y="46" x="38.411458333333336" class="er attributeBoxEven"/><text style="dominant-baseline: middle; font-size: 10.2px;" transform="translate(43.411458333333336,57)" y="0" x="0" id="text-entity-user-0895749b-5c0d-458e-bd8d-3fd921d45c6c-attr-2-name" class="er entityLabel">name</text><rect height="22" width="23.450520833333332" y="46" x="76.54947916666667" class="er attributeBoxEven"/><text style="dominant-baseline: middle; font-size: 10.2px;" transform="translate(81.54947916666667,57)" y="0" x="0" id="text-entity-user-0895749b-5c0d-458e-bd8d-3fd921d45c6c-attr-2-key" class="er entityLabel"/><rect height="22" width="38.411458333333336" y="68" x="0" class="er attributeBoxOdd"/><text style="dominant-baseline: middle; font-size: 10.2px;" transform="translate(5,79)" y="0" x="0" id="text-entity-user-0895749b-5c0d-458e-bd8d-3fd921d45c6c-attr-3-type" class="er entityLabel">String</text><rect height="22" width="38.138020833333336" y="68" x="38.411458333333336" class="er attributeBoxOdd"/><text style="dominant-baseline: middle; font-size: 10.2px;" transform="translate(43.411458333333336,79)" y="0" x="0" id="text-entity-user-0895749b-5c0d-458e-bd8d-3fd921d45c6c-attr-3-name" class="er entityLabel">email</text><rect height="22" width="23.450520833333332" y="68" x="76.54947916666667" class="er attributeBoxOdd"/><text style="dominant-baseline: middle; font-size: 10.2px;" transform="translate(81.54947916666667,79)" y="0" x="0" id="text-entity-user-0895749b-5c0d-458e-bd8d-3fd921d45c6c-attr-3-key" class="er entityLabel"/><rect height="22" width="38.411458333333336" y="90" x="0" class="er attributeBoxEven"/><text style="dominant-baseline: middle; font-size: 10.2px;" transform="translate(5,101)" y="0" x="0" id="text-entity-user-0895749b-5c0d-458e-bd8d-3fd921d45c6c-attr-4-type" class="er entityLabel">String</text><rect height="22" width="38.138020833333336" y="90" x="38.411458333333336" class="er attributeBoxEven"/><text style="dominant-baseline: middle; font-size: 10.2px;" transform="translate(43.411458333333336,101)" y="0" x="0" id="text-entity-user-0895749b-5c0d-458e-bd8d-3fd921d45c6c-attr-4-name" class="er entityLabel">photo</text><rect height="22" width="23.450520833333332" y="90" x="76.54947916666667" class="er attributeBoxEven"/><text style="dominant-baseline: middle; font-size: 10.2px;" transform="translate(81.54947916666667,101)" y="0" x="0" id="text-entity-user-0895749b-5c0d-458e-bd8d-3fd921d45c6c-attr-4-key" class="er entityLabel"/></g><g transform="translate(20,188 )" id="entity-habits-bf651526-2ad1-407f-b7bd-bdd6b2ab1800"><rect height="90" width="135.2109375" y="0" x="0" class="er entityBox"/><text style="dominant-baseline: middle; text-anchor: middle; font-size: 12px;" transform="translate(67.60546875,12)" y="0" x="0" id="text-entity-habits-bf651526-2ad1-407f-b7bd-bdd6b2ab1800" class="er entityLabel">habits</text><rect height="22" width="53.6640625" y="24" x="0" class="er attributeBoxOdd"/><text style="dominant-baseline: middle; font-size: 10.2px;" transform="translate(5,35)" y="0" x="0" id="text-entity-habits-bf651526-2ad1-407f-b7bd-bdd6b2ab1800-attr-1-type" class="er entityLabel">String</text><rect height="22" width="59.984375" y="24" x="53.6640625" class="er attributeBoxOdd"/><text style="dominant-baseline: middle; font-size: 10.2px;" transform="translate(58.6640625,35)" y="0" x="0" id="text-entity-habits-bf651526-2ad1-407f-b7bd-bdd6b2ab1800-attr-1-name" class="er entityLabel">id</text><rect height="22" width="21.5625" y="24" x="113.6484375" class="er attributeBoxOdd"/><text style="dominant-baseline: middle; font-size: 10.2px;" transform="translate(118.6484375,35)" y="0" x="0" id="text-entity-habits-bf651526-2ad1-407f-b7bd-bdd6b2ab1800-attr-1-key" class="er entityLabel">PK</text><rect height="22" width="53.6640625" y="46" x="0" class="er attributeBoxEven"/><text style="dominant-baseline: middle; font-size: 10.2px;" transform="translate(5,57)" y="0" x="0" id="text-entity-habits-bf651526-2ad1-407f-b7bd-bdd6b2ab1800-attr-2-type" class="er entityLabel">String</text><rect height="22" width="59.984375" y="46" x="53.6640625" class="er attributeBoxEven"/><text style="dominant-baseline: middle; font-size: 10.2px;" transform="translate(58.6640625,57)" y="0" x="0" id="text-entity-habits-bf651526-2ad1-407f-b7bd-bdd6b2ab1800-attr-2-name" class="er entityLabel">title</text><rect height="22" width="21.5625" y="46" x="113.6484375" class="er attributeBoxEven"/><text style="dominant-baseline: middle; font-size: 10.2px;" transform="translate(118.6484375,57)" y="0" x="0" id="text-entity-habits-bf651526-2ad1-407f-b7bd-bdd6b2ab1800-attr-2-key" class="er entityLabel"/><rect height="22" width="53.6640625" y="68" x="0" class="er attributeBoxOdd"/><text style="dominant-baseline: middle; font-size: 10.2px;" transform="translate(5,79)" y="0" x="0" id="text-entity-habits-bf651526-2ad1-407f-b7bd-bdd6b2ab1800-attr-3-type" class="er entityLabel">DateTime</text><rect height="22" width="59.984375" y="68" x="53.6640625" class="er attributeBoxOdd"/><text style="dominant-baseline: middle; font-size: 10.2px;" transform="translate(58.6640625,79)" y="0" x="0" id="text-entity-habits-bf651526-2ad1-407f-b7bd-bdd6b2ab1800-attr-3-name" class="er entityLabel">created_at</text><rect height="22" width="21.5625" y="68" x="113.6484375" class="er attributeBoxOdd"/><text style="dominant-baseline: middle; font-size: 10.2px;" transform="translate(118.6484375,79)" y="0" x="0" id="text-entity-habits-bf651526-2ad1-407f-b7bd-bdd6b2ab1800-attr-3-key" class="er entityLabel"/></g><g transform="translate(97.458984375,20 )" id="entity-habitweekdays-937aefde-9646-478d-8684-8e344a6f3257"><rect height="68" width="122.15625" y="0" x="0" class="er entityBox"/><text style="dominant-baseline: middle; text-anchor: middle; font-size: 12px;" transform="translate(61.078125,12)" y="0" x="0" id="text-entity-habitweekdays-937aefde-9646-478d-8684-8e344a6f3257" class="er entityLabel">habit_week_days</text><rect height="22" width="39.450520833333336" y="24" x="0" class="er attributeBoxOdd"/><text style="dominant-baseline: middle; font-size: 10.2px;" transform="translate(5,35)" y="0" x="0" id="text-entity-habitweekdays-937aefde-9646-478d-8684-8e344a6f3257-attr-1-type" class="er entityLabel">String</text><rect height="22" width="58.216145833333336" y="24" x="39.450520833333336" class="er attributeBoxOdd"/><text style="dominant-baseline: middle; font-size: 10.2px;" transform="translate(44.450520833333336,35)" y="0" x="0" id="text-entity-habitweekdays-937aefde-9646-478d-8684-8e344a6f3257-attr-1-name" class="er entityLabel">id</text><rect height="22" width="24.489583333333332" y="24" x="97.66666666666667" class="er attributeBoxOdd"/><text style="dominant-baseline: middle; font-size: 10.2px;" transform="translate(102.66666666666667,35)" y="0" x="0" id="text-entity-habitweekdays-937aefde-9646-478d-8684-8e344a6f3257-attr-1-key" class="er entityLabel">PK</text><rect height="22" width="39.450520833333336" y="46" x="0" class="er attributeBoxEven"/><text style="dominant-baseline: middle; font-size: 10.2px;" transform="translate(5,57)" y="0" x="0" id="text-entity-habitweekdays-937aefde-9646-478d-8684-8e344a6f3257-attr-2-type" class="er entityLabel">Int</text><rect height="22" width="58.216145833333336" y="46" x="39.450520833333336" class="er attributeBoxEven"/><text style="dominant-baseline: middle; font-size: 10.2px;" transform="translate(44.450520833333336,57)" y="0" x="0" id="text-entity-habitweekdays-937aefde-9646-478d-8684-8e344a6f3257-attr-2-name" class="er entityLabel">week_day</text><rect height="22" width="24.489583333333332" y="46" x="97.66666666666667" class="er attributeBoxEven"/><text style="dominant-baseline: middle; font-size: 10.2px;" transform="translate(102.66666666666667,57)" y="0" x="0" id="text-entity-habitweekdays-937aefde-9646-478d-8684-8e344a6f3257-attr-2-key" class="er entityLabel"/></g><g transform="translate(387.60546875,199 )" id="entity-days-091d4f0e-ecb8-4090-80c1-84eee72f99c9"><rect height="68" width="105.8828125" y="0" x="0" class="er entityBox"/><text style="dominant-baseline: middle; text-anchor: middle; font-size: 12px;" transform="translate(52.94140625,12)" y="0" x="0" id="text-entity-days-091d4f0e-ecb8-4090-80c1-84eee72f99c9" class="er entityLabel">days</text><rect height="22" width="53.6640625" y="24" x="0" class="er attributeBoxOdd"/><text style="dominant-baseline: middle; font-size: 10.2px;" transform="translate(5,35)" y="0" x="0" id="text-entity-days-091d4f0e-ecb8-4090-80c1-84eee72f99c9-attr-1-type" class="er entityLabel">String</text><rect height="22" width="30.65625" y="24" x="53.6640625" class="er attributeBoxOdd"/><text style="dominant-baseline: middle; font-size: 10.2px;" transform="translate(58.6640625,35)" y="0" x="0" id="text-entity-days-091d4f0e-ecb8-4090-80c1-84eee72f99c9-attr-1-name" class="er entityLabel">id</text><rect height="22" width="21.5625" y="24" x="84.3203125" class="er attributeBoxOdd"/><text style="dominant-baseline: middle; font-size: 10.2px;" transform="translate(89.3203125,35)" y="0" x="0" id="text-entity-days-091d4f0e-ecb8-4090-80c1-84eee72f99c9-attr-1-key" class="er entityLabel">PK</text><rect height="22" width="53.6640625" y="46" x="0" class="er attributeBoxEven"/><text style="dominant-baseline: middle; font-size: 10.2px;" transform="translate(5,57)" y="0" x="0" id="text-entity-days-091d4f0e-ecb8-4090-80c1-84eee72f99c9-attr-2-type" class="er entityLabel">DateTime</text><rect height="22" width="30.65625" y="46" x="53.6640625" class="er attributeBoxEven"/><text style="dominant-baseline: middle; font-size: 10.2px;" transform="translate(58.6640625,57)" y="0" x="0" id="text-entity-days-091d4f0e-ecb8-4090-80c1-84eee72f99c9-attr-2-name" class="er entityLabel">date</text><rect height="22" width="21.5625" y="46" x="84.3203125" class="er attributeBoxEven"/><text style="dominant-baseline: middle; font-size: 10.2px;" transform="translate(89.3203125,57)" y="0" x="0" id="text-entity-days-091d4f0e-ecb8-4090-80c1-84eee72f99c9-attr-2-key" class="er entityLabel"/></g><g transform="translate(390.546875,31 )" id="entity-dayhabits-94c52b1a-0135-465f-bcb9-072bfbaa9fed"><rect height="46" width="100" y="0" x="0" class="er entityBox"/><text style="dominant-baseline: middle; text-anchor: middle; font-size: 12px;" transform="translate(50,12)" y="0" x="0" id="text-entity-dayhabits-94c52b1a-0135-465f-bcb9-072bfbaa9fed" class="er entityLabel">day_habits</text><rect height="22" width="44.296875" y="24" x="0" class="er attributeBoxOdd"/><text style="dominant-baseline: middle; font-size: 10.2px;" transform="translate(5,35)" y="0" x="0" id="text-entity-dayhabits-94c52b1a-0135-465f-bcb9-072bfbaa9fed-attr-1-type" class="er entityLabel">String</text><rect height="22" width="26.3671875" y="24" x="44.296875" class="er attributeBoxOdd"/><text style="dominant-baseline: middle; font-size: 10.2px;" transform="translate(49.296875,35)" y="0" x="0" id="text-entity-dayhabits-94c52b1a-0135-465f-bcb9-072bfbaa9fed-attr-1-name" class="er entityLabel">id</text><rect height="22" width="29.3359375" y="24" x="70.6640625" class="er attributeBoxOdd"/><text style="dominant-baseline: middle; font-size: 10.2px;" transform="translate(75.6640625,35)" y="0" x="0" id="text-entity-dayhabits-94c52b1a-0135-465f-bcb9-072bfbaa9fed-attr-1-key" class="er entityLabel">PK</text></g><rect height="14" width="23.8515625" y="359.603271484375" x="201.48056030273438" class="er relationshipLabelBox"/><text style="text-anchor: middle; dominant-baseline: middle; font-size: 12px;" y="366.603271484375" x="213.40634155273438" id="rel1" class="er relationshipLabel">User</text><rect height="14" width="27.7265625" y="122.77725219726562" x="57.9615478515625" class="er relationshipLabelBox"/><text style="text-anchor: middle; dominant-baseline: middle; font-size: 12px;" y="129.77725219726562" x="71.8248291015625" id="rel2" class="er relationshipLabel">habit</text><rect height="14" width="23.8515625" y="233.4058074951172" x="275.68695068359375" class="er relationshipLabelBox"/><text style="text-anchor: middle; dominant-baseline: middle; font-size: 12px;" y="240.4058074951172" x="287.61273193359375" id="rel3" class="er relationshipLabel">User</text><rect height="14" width="23.8515625" y="315.8287048339844" x="427.2534484863281" class="er relationshipLabelBox"/><text style="text-anchor: middle; dominant-baseline: middle; font-size: 12px;" y="322.8287048339844" x="439.1792297363281" id="rel4" class="er relationshipLabel">User</text><rect height="14" width="18.9140625" y="131" x="431.08984375" class="er relationshipLabelBox"/><text style="text-anchor: middle; dominant-baseline: middle; font-size: 12px;" y="138" x="440.546875" id="rel5" class="er relationshipLabel">day</text><rect height="14" width="27.7265625" y="105.68824768066406" x="232.26226806640625" class="er relationshipLabelBox"/><text style="text-anchor: middle; dominant-baseline: middle; font-size: 12px;" y="112.68824768066406" x="246.12554931640625" id="rel6" class="er relationshipLabel">habit</text><rect height="14" width="23.8515625" y="235.32093811035156" x="581.5426635742188" class="er relationshipLabelBox"/><text style="text-anchor: middle; dominant-baseline: middle; font-size: 12px;" y="242.32093811035156" x="593.4684448242188" id="rel7" class="er relationshipLabel">User</text></svg>